# xmcd
# 
# Track frame offsets:
#     150
#     29292
#     44320
#     60355
#     71975
#     84512
#     96910
#     114712
#     128920
#     145262
# 
# Disc length: 2184
# 
# Revision: 10
# Processed by: cddbd v1.5.2PL0 Copyright (c) Steve Scherf et al.
# Submitted via: fre:ac v1.0.31
# 
DISCID=8c08860a
DTITLE=Wilco - Being There Disc 1
DYEAR=1996
DGENRE=Alt-Country
TTITLE0=Misunderstood
TTITLE1=Far, Far Away
TTITLE2=Monday
TTITLE3=Outtasite (Outta Mind)
TTITLE4=Forget the Flowers
TTITLE5=Red-Eyed and Blue
TTITLE6=I Got You (at the End of the Century)
TTITLE7=What's the World Got in Store
TTITLE8=Hotel Arizona
TTITLE9=Say You Miss Me
EXTD=YEAR: 1996
EXTT0=
EXTT1=
EXTT2=
EXTT3=
EXTT4=
EXTT5=
EXTT6=
EXTT7=
EXTT8=
EXTT9=
PLAYORDER=
